<?xml version="1.0" encoding="utf-8"?>
<!-- Svg Vector Icons : http://www.onlinewebfonts.com/icon -->
<!DOCTYPE svg PUBLIC "-//W3C//DTD SVG 1.1//EN" "http://www.w3.org/Graphics/SVG/1.1/DTD/svg11.dtd">
<svg version="1.1" xmlns="http://www.w3.org/2000/svg" xmlns:xlink="http://www.w3.org/1999/xlink" x="0px" y="0px" viewBox="0 0 1000 1000" enable-background="new 0 0 1000 1000" xml:space="preserve">
<metadata> Svg Vector Icons : http://www.onlinewebfonts.com/icon </metadata>
<g><path d="M490.3,416.8c0.1-0.1,0.1-0.2,0.2-0.2c-0.2-1-0.3-1.8-0.4-2.5C490.2,415,490.2,415.9,490.3,416.8L490.3,416.8z M678.5,622.2L678.5,622.2c0,0-0.1,0-0.1-0.1C678.4,622.2,678.5,622.2,678.5,622.2L678.5,622.2z M683.3,622.9c-1.1-0.2-3.8,0.1-4.7-0.7C677.9,624.5,678.8,625.3,683.3,622.9L683.3,622.9z M500,10C229.3,10,10,229.3,10,500c0,270.7,219.5,490,490,490c270.7,0,490-219.3,490-490C990,229.3,770.7,10,500,10L500,10z M813,201.4c-16.8,0.6-28.6,0.6-42.2,9.9c-5.4,3.8-9.2,8.9-16.1,10.7c-6.3,1.7-12.9,0.2-19.2,2.4c-22.2,7.5-18.6,55.2-48,47.9c-13.8-3.4-23.5-19.6-30.4-30.2c-6.2-9.4-17.3-17.1-9.7-28.9c-3.5,0.9-7.1-0.1-10.4,0.6c4.6-10.3,20.4-9.4,23-14.7c6.6-13.2-18-14.6-24.9-16.5c8.3-9,12.6,3,20.9,1c7.9-1.9-4.2-12.3-9-13.6c-1.7-0.4-29.6,7.7-13.5-6.8c-20-12.7-39.9-25.5-59.8-38.2c-3.4,14.1,26.5,22.2,36.4,27.3c-1.5,5.8-10.6,14.4-17.6,11.9c-6.6-2.4-3.9-13.2-13.8-12.2c-7.1,16.5,14.9,11.7,17,21.8c2.2,11.5-8.4,6.6-12.5,6.5c-1-0.1-8.6-8-9-2c-0.6,7.1,12.2,4.3,13,11.6c-14.8,0.6-22.3-4.7-34.4-12.7c-14-9.3-21.2-8.5-38.4-8.5c5.2-2.1,12.2-3.7,16.6-7.1c2.5-1.9,11.8-11,12.5-13c2.7-8.9-0.1-8.2-8.5-13.9c-7.5-5.2-16.6-14.4-25.7-16.2c-32.9-6.5-10.2,29.7-35.1,34.7c0.3,0.1,0.9,0.1,1.2,0.1H474c0.1,0,0.1-0.1,0.1-0.1c-5.7-0.1-16.6-1.5-20.3,1.5c-2.7,2.1-2.9,10.8-5.8,13.9c-5.3,5.5-13,6.6-19.3,10.7c-6.2,3.8-19.5,14-23,20.9c-13.2,25.1,29.6,33,45.9,40.3c7.3,3.4,28.9,7.9,32.9,13.5c5.4,7.4-4.7,14.5,6.5,19.6c3.6,1.7,11,2,14-1.3c4.9-5.7-2-6.8-3.3-13.5c-2.2-12.6,1.5-7.5,7.9-12.2c12.9-9.5,10-10.1,5.4-25.3c-2.1-7-10.2-26.6-3-31.9c9.3-6.8,29.1,3.7,36.3,4.6c8.2,1,13,12.6,17.5,17.3c3,3,8.3,9.7,13.6,9c8.4-1.1,4.8-8.4,9.7-11.8c13-9,16.4,3.3,21.4,15.4c4.9,11.5,9.5,15.7,18.1,23.1c4,3.5,21.7,15.6,20,23.2c-1.1,5.1-21.2,12.8-26.6,14.5c-19.6,6.3-56.5-10.2-60.5,21c7.7-2.8,29.4-20.5,35.9-12.1c2.9,3.8-2.4,9.4-1.1,13.1c3.8,11.3,12.6,7.4,21.7,5.6c-0.6,0.3-1.2,0.7-1.9,1c12.6-6.5,11.2-5.1,17-15.6c1.9-3.5,4.6-11.7,7.3-14.1c9.1-8.4,10.6-2.6,16.2,3.9c1.5,1.7,15.4,21.8,10.4,20.8c-16.2-3.4-31.8-2.9-45.2,6.1c-7.7,5.1-15,12.1-24.4,15.5c-2.2,0.8-18.6,2.5-16.8-0.3c2.9-4.2,12.7-6.8,16.5-11.2c-10.7-4.4-19.6,5.3-28,11c-9,4.2-11,12.1-18.5,19c-3.3,3-9.5,3.5-12.8,7.4c-3.3,3.8-3.5,9.8-6.5,13.5c-2.1,2.6-7.5,1-9.7,4.8c-2.9,5.1,2.6,9.8,1.5,13.4c-2.2,6.5-14.7,12.1-19.4,16.8c0.7-0.7,1.3-1.2,1.9-1.9c-4.8,5.1-10.9,8.9-14.7,14.7c1.8,8.2,7.2,28,5.6,32.4c-4.9,14.9-14.6-8.1-18.6-14c-13.6-20.4-40.7-6.8-59.2-5.1c-23.7,2.1-46.8,32.9-32.3,57.8c7,11.9,18.9,16.6,32.3,13.8c12-2.6,15.6-19.3,26.9-19.6c20.9-0.6,0.6,20.4-1.3,28.2c-1.7,7.1,2.6,7.7,9.9,9.5c5.4,1.3,13.1-2.4,17.7,0.8c2.9,1.9,2.8,12.6,7,9.2c-8.1,6.6-6.2,22.5,2,28.1c9.1,6.3,19.9,0.6,29.3,2.9c18.1,4.6,9.4-1.3,25.3-10.9c10.7-6.4,12.5,1.2,19.8,1.2c4.9,0,8.1-7.1,16.4-5.1c6.7,1.8,9.4,7,17.4,8.2c3.4,0.4,6.8-1.3,9.9-0.9c14.9,1.7,26.4,11.2,38.2,19.9c9.7,7.1,16.1,5.6,27.4,8.9c8.3,2.4,23.6,14.4,22.8,24.9c-0.1,1.8-7.4,11.3-8.6,15.6c2.1,1.5,16.8-1.8,21.1-2.1c-1.3,1.6-11.4,8.6-11.4,4.9c0,1.9,7.1,5.8,8.9,7.1c5.3-17,13.8-6.1,24.1-1.8c8.9,3.6,19.6,3.8,29,6.1c7.9,1.9,25.5,7.3,31.3,13.8c7.1,7.9,2.1,20.5-3,28.4c-6.8,10.2-17.3,14.1-21.4,26.2c-3.4,9.5-0.9,19.1-2.8,29.6c-2.6,14.3-4.7,9.3-13.9,18c-7.7,7.3-0.1,6.1-10.7,10.8c-10.6,4.6-19.9,3.4-27.3,14.9c0.3-0.8,0.6-1.5,0.8-2.2c-3,4.3-4.6,13.2-6.2,16.1c-3.7,7.4-8.8,12.1-14.6,18.3c-2.2,2.4-22.9,30.5-24,28.3c-1.5-2.9-17.7,2.9-18.5-1.3c0.7,3.5-0.2,2.4,3.8,4.3c-3.7,23.1-13.5,26.6-36.1,26.8c1.9,11.1-8.2,8.9-13,14.9c-2.7,3.5-4.2,13.4-6.1,17.7c-1.1,2.9-10,14.3-10,16.5c-0.1,2.1,2.9,5.1,5.7,8.1c-16.1,3.3-32.3,5.4-48.9,6.8c3.1-3.9,3.9-7.3-6.1-7.9c2.6-7.1,8.9-11.3,11.5-18.2c1.2-3.3,0.2-4.6,1.3-7.9c3.6-11.2,2-7,0-15.7c-4.7-20.4,1.7-26,7.3-44.8c5.7-19.3,5.2-44.2,8.9-65c1.7-10,4.6-30.5,1.1-40c-3.9-10.6-21-18.9-28.7-25.9c-11.1-10.1-17-21-25.3-33.6c-4.2-6.3-9-12.5-12.2-19.4c-7-14.8,0-6.1,1.2-14.7c1.1-8.4-1-15.8,2.2-24.7c3.7-9.8,12.9-15.8,15.8-25.7c2.7-8.9,0.7-19.8-8.3-22.7c-5.1-1.7-10.6,2.1-15.6,1.3c-7-1.1-14.9-6.4-20.4-10.6c-7.7-5.8-10.6-15.3-18.7-20.9c-6.8-4.6-11.7-1.8-19-4c-7.7-2.2-12.5-11.7-18.6-14.6c-9.2-4.5-14.4,1.9-24.2,0.6c-8.3-1-21-10.2-28.7-13.8c-15.8-7-25.4-14.8-31.8-30.9c-5.4-13.7-13.2-20.1-22.6-31.7c-9.4-11.6-12.3-21.4-26.8-24.6c-1.8-0.3,3.5,12.2,4,13.2c5.2,9.5,12.9,18.3,19.2,27.3c9.3,13.1,5.4,15.6-4,2.9c-10.7-14.6-23.1-29.1-32.4-44.5c-3.5-5.7-2.9-9.5-8.6-15c-5.6-5.4-12.9-8.1-18.5-13c-20.2-18.2-24-42.5-21.7-68.6c0.7-8.5,3.8-15.3,2.5-23.3c-1-6.8-5.1-12.3-10.1-17.3c-1.6-2.6-5.7-8.9-5.8-9.2c-4.6-7.6-8.2-15.2-15.5-21.4c-4.2-3.7-15-12.1-25.3-19.2c45.9-57.3,106-102.6,174.9-130.8c0.6,3.5,2,6.8,4.3,10.2c5.7,8.4,11,7.7,22.1,10.1c-1.1,12.9-16.2,12.9-26.4,11.6c-12.1-1.7-24.9-5.7-35.4,4.9c5.8,3.5,21.8,17.1,19.6,2.9c11.7-0.7,22.9-1,34.1,0.4c4.6,0.7,19.9,5.7,24,3.4c1.8-1,3.6-9.5,5.5-12.2c-3.3,0-6.7-1.6-9.9-1.3c7.5-9.7,14.9-2.1,24.6,2.2c-10.7,6.5-4.4,21.9,5.9,9.3c8.5-10.2-2.1-17.7-12.8-23.6c10.9-13.6,17.5-14.8,27.6,0.6c1.8-9.4,9.3-5.7,17.3-4.9v-2.5c-3.5,0.1-7.3-1.9-10.7-1.5c8.1-12.9,2.9-15.8,14.5-20.2c9.2-3.3,35.6-0.1,38.8-8.9c-18.4,3.5-40.7,4.4-57.3,12.8c-7.1,3.6-15.7,15-22.9,7.6c-7.3-7.6,5.3-19.8,11.7-23.6h-1.6c29.2-6.3,59.3-9.7,90.4-9.7c20.1,0,39.7,1.5,59,4.2c-6.6,3.6-1.7,6.1-6.6,9.5c-9.3,6.8-25.8,12.6-36.8,16.8c14-0.1,48,13.1,54.7-6.5c-4.5-0.7-9-1.3-13.6-2.1c8.5-5.6,17.8-10.1,28-13.5C673.7,92.5,753.2,138,814,201.6C813.9,201.4,813.4,201.4,813,201.4L813,201.4z M892.3,373.5c0.8-1.7,2.7-2.2,3.5-3.7c1.7-2.9,1.3-4.9,3.3-7.5c2.1-2.8,5.1-3.5,7.4-5.6c1-0.9,1.6-1.7,1.9-2.6c7.3,20.2,13,41.1,17.3,62.4c-0.1,0.2-0.2,0.4-0.5,0.6c-1,0.9-7.9,1.8-9.3,1.9c-4.9,0.2-8.6-3.1-12.2-6.2c-3.7-3.3-7.9-7.4-10.6-11.5c-2.7-4.3-1-8.9-0.9-13.8C892.7,383.1,890.5,377.2,892.3,373.5L892.3,373.5z M897.9,598.1c-8.4-7.3-18.3-17.2-24.4-26.6c-6.4-10.1-2.5-20.4-1.9-32.1c0.3-9.7-4.3-23.6-0.2-32.3c1.9-4,6.3-5.4,8.1-8.6c3.8-7,3-11.7,7.6-17.6c4.9-6.4,11.8-8,17.3-12.9c5.8-5.3,5.7-9.4,9.4-16.2c2.7-4.9,9.1-13.1,15-17.5c3.4,21.4,5.1,43.3,5.1,65.8c0,38.6-5.2,76.1-14.7,111.7C911.1,609.7,904.3,603.7,897.9,598.1L897.9,598.1z"/></g>
</svg>